<svg xmlns="http://www.w3.org/2000/svg" width="200" height="22.01"><g transform="matrix(.889999 0 0 .889999 -11.174986 -.990787)"><path d="M1506 1584c-91-22-182-72-246-135-213-209-210-606 5-808 112-104 219-144 390-144 266-1 466 147 530 390 21 79 21 243 0 324-49 191-191 328-388 374-77 18-213 18-291-1zm259-119c156-41 252-158 277-337 30-212-56-401-215-474-57-27-71-29-177-29-103 0-121 3-170 26-158 75-229 217-217 439 6 119 32 191 94 260 103 114 250 156 408 115zM70 1045V510h254c380 0 466 18 551 112 138 153 78 417-110 487-83 31-168 41-367 41H220v430H70v-535zm621-51c65-30 92-73 97-151 3-37-1-76-8-93-17-41-71-87-117-99-21-6-129-11-240-11H220v381l213-3c191-3 217-5 258-24zm1909 582c0-2-67-239-150-527l-150-531c0-5 35-8 77-6l77 3 108 430 108 453c0 39 16 16 29-45 11-49 103-359 222-746l30-98 184 6 103 339c56 186 112 388 125 447 12 60 25 109 29 109 5 0 8-8 8-17 0-10 51-211 114-448l113-430 78-3c60-2 76 0 73 10-3 7-74 248-159 536l-153 522h-151l-129-438c-129-436-154-513-155-480-1 15-148 514-242 821l-30 97h-79c-44 0-80-2-80-4zm1330-531V510h830v130h-680v330h640v120h-640v370h710v120h-860v-535zm1070-1V508l333 5c210 3 350 9 380 17 126 32 207 139 207 273 0 85-21 137-74 190-46 46-80 64-168 86l-70 18 45 26c25 15 67 52 95 82 45 51 262 357 262 370 0 3-42 5-93 5h-92l-105-152c-141-205-190-263-250-293-45-23-60-25-185-25h-135v470h-150v-536zm547-63c104-11 156-33 190-84 48-72 38-152-26-210-55-50-107-58-351-55l-205 3-3 165c-1 90 0 170 2 177 6 16 247 18 393 4zm623 64V510h830v130h-680v330h640v120h-640v370h710v120h-860v-535zm1070-1V508l288 4c258 5 294 7 352 26 207 67 313 239 313 507-1 171-45 304-135 402-55 59-108 89-203 113-69 18-111 20-347 20h-268v-536zm590 390c140-47 223-221 207-438-11-144-49-227-139-299-55-44-127-57-330-57h-178v403c0 222 3 407 8 411 4 5 90 6 192 3 143-4 198-9 240-23zm1020-388V510h238c258 0 340 9 417 44 103 47 150 122 150 237 0 66-4 81-28 118-15 23-48 56-71 73l-44 30 61 32c103 53 155 144 144 252-12 118-82 211-193 255-57 22-72 23-366 27l-308 4v-536zm590 393c54-21 79-43 100-85 45-88 11-192-77-236-45-21-62-23-255-26l-208-4v374l203-4c141-4 213-9 237-19zm-5-506c104-56 102-205-5-267-31-19-55-21-232-24l-198-4v324l198-4c179-3 201-5 237-25zm825 424v-223l-220-304-220-312c0-5 40-8 88-8h88l145 208 172 250c15 23 29 42 31 42s25-33 51-73c26-39 104-152 173-249l126-178h178l-24 33c-14 17-118 156-231 309l-207 276v452h-150v-223z" transform="matrix(.010124 0 0 .010124 11.791348 2.999464)" fill="#bfbfbf"/><path d="M-60.3 231.17c-23.6-2.9-40.9-12.5-50.8-28.4-7.3-11.7-10.6-23.9-10.6-39.6 0-13.8 1.7-20.8 8-33.7 11.3-23 32.9-35.2 62.2-35.3 12.8 0 23 1.9 30.7 5.7 5.9 3 16.2 10.1 18.9 13.2l2 2.2-10.4 10.4-10.3 10.4-4.4-3c-2.3-1.6-7.3-4.1-11-5.5-6-2.3-8-2.5-16.3-2.2-18.8.8-27.7 8.2-32.5 27.2-4.3 17.7 3.7 37.7 18 44.6 9 4.4 27 3.8 36.7-1.1l3.7-1.9.6-17h-32.5v-29h63v58.1l-3 4.4c-1.6 2.3-4.7 5.7-6.9 7.4-11.9 9.4-36.7 15.3-55.1 13.1zm86-68v-65h37v130h-37v-65zm62.7 64.4c-.4-.4-.7-29.6-.7-65v-64.2l3.6-.4c6.8-.8 68.9.2 74.4 1.2 12.2 2.3 24.4 10.7 30.7 21.1 8.5 14.2 8.5 35.7-.1 50.2-3.2 5.5-11.5 13.1-17.8 16.3-7.8 3.9-18.5 5.6-36.3 5.8l-16 .1-1 35-18.1.3c-9.9.1-18.3-.1-18.7-.4zm67.9-66.9c5.6-1 9.7-7.2 9.7-15 0-6.1-2.1-10.5-6.5-13.7-3.1-2.1-4.4-2.3-19-2.6l-15.8-.4v32.7l14.2-.2c7.9-.2 15.7-.5 17.4-.8zm58.4 2.5v-65h37v49h46v-49h37v130l-18.2-.2-18.3-.3-.2-48-23.2-.3-23.1-.2-.2 24.2-.3 24.3-18.2.3-18.3.2v-65zm183 39.4v-25.7l-16.7-26.1-25-38.9c-4.6-7-8.3-13-8.3-13.3 0-.2 9.4-.4 20.9-.4h20.9l12.9 21.5c7 11.8 13.3 21.4 13.8 21.4.6 0 7-9.6 14.3-21.4l13.3-21.5h42.1l-2.1 3.3-26 39.2-24.1 35.9v51.6h-36v-25.6z" transform="matrix(.17992 0 0 .17992 149.79627 -15.773225)" fill-opacity=".486"/></g></svg>